<svg width="58" height="42" viewBox="0 0 58 42" fill="none" xmlns="http://www.w3.org/2000/svg">
<path d="M55.831 6.57696C55.5035 5.30574 54.8648 4.14681 53.9783 3.21557C53.0918 2.28434 51.9886 1.61328 50.7784 1.26924C46.348 0 28.517 0 28.517 0C28.517 0 10.6851 0.0384192 6.25473 1.30766C5.04454 1.65172 3.94126 2.32281 3.05478 3.25409C2.1683 4.18537 1.52953 5.34435 1.2021 6.61561C-0.138004 14.8847 -0.657852 27.4848 1.23889 35.423C1.56636 36.6943 2.20514 37.8532 3.09162 38.7844C3.97811 39.7157 5.08136 40.3867 6.29153 40.7308C10.7219 42 28.5534 42 28.5534 42C28.5534 42 46.3845 42 50.8147 40.7308C52.0249 40.3868 53.1282 39.7157 54.0148 38.7845C54.9013 37.8532 55.5401 36.6943 55.8676 35.423C57.2811 27.1423 57.7166 14.5501 55.831 6.57719V6.57696Z" fill="#0D8346"/>
<path d="M22.8415 29.9999L37.6336 20.9999L22.8415 12V29.9999Z" fill="white"/>
</svg>
