<svg width="42" height="42" viewBox="0 0 42 42" fill="none" xmlns="http://www.w3.org/2000/svg">
<path d="M21 0C26.7057 0 27.4176 0.0209999 29.6562 0.126C31.8927 0.231 33.4152 0.5817 34.755 1.1025C36.141 1.6359 37.3086 2.3583 38.4762 3.5238C39.544 4.57358 40.3703 5.84344 40.8975 7.245C41.4162 8.5827 41.769 10.1073 41.874 12.3438C41.9727 14.5824 42 15.2943 42 21C42 26.7057 41.979 27.4176 41.874 29.6562C41.769 31.8927 41.4162 33.4152 40.8975 34.755C40.3718 36.1573 39.5454 37.4275 38.4762 38.4762C37.4261 39.5437 36.1563 40.3699 34.755 40.8975C33.4173 41.4162 31.8927 41.769 29.6562 41.874C27.4176 41.9727 26.7057 42 21 42C15.2943 42 14.5824 41.979 12.3438 41.874C10.1073 41.769 8.5848 41.4162 7.245 40.8975C5.84288 40.3714 4.57281 39.545 3.5238 38.4762C2.45575 37.4266 1.62946 36.1567 1.1025 34.755C0.5817 33.4173 0.231 31.8927 0.126 29.6562C0.0272999 27.4176 0 26.7057 0 21C0 15.2943 0.0209999 14.5824 0.126 12.3438C0.231 10.1052 0.5817 8.5848 1.1025 7.245C1.628 5.84258 2.45449 4.57237 3.5238 3.5238C4.57311 2.45539 5.8431 1.62903 7.245 1.1025C8.5848 0.5817 10.1052 0.231 12.3438 0.126C14.5824 0.0272999 15.2943 0 21 0ZM21 10.5C18.2152 10.5 15.5445 11.6062 13.5754 13.5754C11.6062 15.5445 10.5 18.2152 10.5 21C10.5 23.7848 11.6062 26.4555 13.5754 28.4246C15.5445 30.3938 18.2152 31.5 21 31.5C23.7848 31.5 26.4555 30.3938 28.4246 28.4246C30.3938 26.4555 31.5 23.7848 31.5 21C31.5 18.2152 30.3938 15.5445 28.4246 13.5754C26.4555 11.6062 23.7848 10.5 21 10.5ZM34.65 9.975C34.65 9.27881 34.3734 8.61113 33.8812 8.11884C33.3889 7.62656 32.7212 7.35 32.025 7.35C31.3288 7.35 30.6611 7.62656 30.1688 8.11884C29.6766 8.61113 29.4 9.27881 29.4 9.975C29.4 10.6712 29.6766 11.3389 30.1688 11.8312C30.6611 12.3234 31.3288 12.6 32.025 12.6C32.7212 12.6 33.3889 12.3234 33.8812 11.8312C34.3734 11.3389 34.65 10.6712 34.65 9.975ZM21 14.7C22.6709 14.7 24.2733 15.3637 25.4548 16.5452C26.6363 17.7267 27.3 19.3291 27.3 21C27.3 22.6709 26.6363 24.2733 25.4548 25.4548C24.2733 26.6363 22.6709 27.3 21 27.3C19.3291 27.3 17.7267 26.6363 16.5452 25.4548C15.3637 24.2733 14.7 22.6709 14.7 21C14.7 19.3291 15.3637 17.7267 16.5452 16.5452C17.7267 15.3637 19.3291 14.7 21 14.7Z" fill="#0D8346"/>
</svg>
