<svg width="42" height="42" viewBox="0 0 42 42" fill="none" xmlns="http://www.w3.org/2000/svg">
<path d="M21 0C9.40188 0 0 9.40188 0 21C0 32.5981 9.40188 42 21 42C32.5981 42 42 32.5981 42 21C42 9.40188 32.5981 0 21 0ZM29.5422 17.2025C29.5509 17.3819 29.5531 17.5613 29.5531 17.7363C29.5531 23.205 25.3947 29.5072 17.7866 29.5072C15.5385 29.5109 13.3371 28.8653 11.4472 27.6478C11.7687 27.6872 12.0991 27.7025 12.4338 27.7025C14.3719 27.7025 16.1547 27.0441 17.57 25.9328C16.7075 25.9159 15.8718 25.6303 15.1793 25.1158C14.4868 24.6014 13.9721 23.8837 13.7069 23.0628C14.3263 23.1806 14.9644 23.1559 15.5728 22.9906C14.6367 22.8013 13.7948 22.2941 13.19 21.5549C12.5852 20.8157 12.2546 19.8901 12.2544 18.935V18.8847C12.8122 19.1931 13.4509 19.3813 14.1291 19.4031C13.2514 18.8189 12.6302 17.9215 12.3923 16.8944C12.1544 15.8672 12.3179 14.7881 12.8494 13.8775C13.8883 15.155 15.184 16.2001 16.6525 16.9451C18.121 17.69 19.7295 18.1183 21.3741 18.2022C21.165 17.3147 21.255 16.3831 21.63 15.552C22.0051 14.721 22.6442 14.0372 23.448 13.6068C24.2518 13.1765 25.1752 13.0238 26.0748 13.1724C26.9743 13.321 27.7996 13.7627 28.4222 14.4287C29.3479 14.2456 30.2356 13.9061 31.0472 13.4247C30.7387 14.3831 30.0927 15.1969 29.2294 15.715C30.0494 15.6162 30.85 15.3958 31.605 15.0609C31.0504 15.892 30.3519 16.6172 29.5422 17.2025Z" fill="#0D8346"/>
</svg>
